<?xml version="1.0" encoding="iso-8859-1"?>
<!-- Uploaded to: SVG Repo, www.svgrepo.com, Generator: SVG Repo Mixer Tools -->
<svg fill="#09AFF4" version="1.1" id="Layer_1" xmlns="http://www.w3.org/2000/svg" xmlns:xlink="http://www.w3.org/1999/xlink" 
	 viewBox="0 0 512 512" xml:space="preserve">
<g>
	<g>
		<polygon points="486.153,183.921 465.758,100.419 390.705,290.811 382.822,276.991 369.207,284.757 393.294,326.981 
			462.242,152.079 473.847,199.595 512,199.595 512,183.921 		"/>
	</g>
</g>
<g>
	<g>
		<polygon points="320.837,174.351 289.084,214.045 270.78,182.012 257.171,189.788 286.916,241.842 319.163,201.535 
			337.937,232.041 351.284,223.827 		"/>
	</g>
</g>
<g>
	<g>
		<polygon points="225.223,101.417 202.442,132.016 159.475,12.221 78.513,272.266 36.975,183.921 0,183.921 0,199.595 
			27.025,199.595 81.487,315.434 160.525,61.574 197.558,164.824 222.777,130.947 226.166,137.539 240.106,130.374 		"/>
	</g>
</g>
<g>
	<g>
		<path d="M356.82,155.123c-28.01-28.008-73.583-28.008-101.592,0c-28.008,28.011-28.008,73.584,0,101.594
			c13.568,13.568,31.608,21.041,50.797,21.041s37.228-7.474,50.796-21.042c13.568-13.568,21.041-31.608,21.041-50.797
			C377.861,186.731,370.389,168.691,356.82,155.123z M345.738,245.632c-10.608,10.608-24.712,16.451-39.713,16.451
			s-29.106-5.843-39.713-16.451c-21.898-21.898-21.898-57.528,0-79.427c10.951-10.949,25.329-16.424,39.713-16.424
			c14.381,0,28.766,5.475,39.713,16.424C367.636,188.103,367.636,223.734,345.738,245.632z"/>
	</g>
</g>
<g>
	<g>
		<path d="M373.791,138.152c-18.101-18.101-42.168-28.069-67.767-28.069c-25.599,0-49.666,9.968-67.767,28.069
			c-18.102,18.102-28.07,42.168-28.07,67.767c0,22.967,8.047,44.686,22.769,61.984l-11.669,11.669l11.082,11.083l11.669-11.669
			c17.298,14.722,39.018,22.768,61.984,22.768c25.6,0.001,49.667-9.967,67.768-28.068
			C411.158,236.319,411.158,175.519,373.791,138.152z M362.71,262.602c-15.141,15.142-35.272,23.48-56.685,23.48
			c-21.413,0-41.543-8.337-56.685-23.48c-15.142-15.141-23.48-35.271-23.48-56.684c0-21.412,8.338-41.543,23.48-56.684
			c15.141-15.142,35.272-23.48,56.685-23.48c21.413,0,41.543,8.337,56.685,23.48C393.965,180.49,393.965,231.347,362.71,262.602z"/>
	</g>
</g>
<g>
	<g>
		<rect x="207.665" y="272.425" transform="matrix(0.7071 -0.7071 0.7071 0.7071 -146.4853 239.203)" width="15.672" height="48"/>
	</g>
</g>
<g>
	<g>
		<path d="M181.458,285.229l-11.082,11.084l5.772,5.771L57.354,420.879l33.709,33.71l118.793-118.793l5.773,5.772l11.082-11.083
			L181.458,285.229z M91.064,432.424L79.52,420.879l17.201-17.201l11.544,11.545L91.064,432.424z M119.348,404.14l-11.544-11.544
			l79.427-79.427l11.543,11.544L119.348,404.14z"/>
	</g>
</g>
<g>
	<g>
		<path d="M338.082,372.106l-65.918-37.668v165.34h239.673V372.106H338.082z M496.164,484.107H287.837v-122.66l46.083,26.332
			h162.243V484.107z"/>
	</g>
</g>
<g>
	<g>
		<rect x="312.424" y="408.577" width="87.771" height="15.673"/>
	</g>
</g>
<g>
	<g>
		<rect x="312.424" y="432.609" width="31.347" height="15.673"/>
	</g>
</g>
<g>
	<g>
		<rect x="360.49" y="432.609" width="71.053" height="15.673"/>
	</g>
</g>
<g>
	<g>
		<rect x="312.424" y="455.597" width="15.673" height="15.673"/>
	</g>
</g>
<g>
	<g>
		<rect x="343.771" y="455.597" width="16.718" height="15.673"/>
	</g>
</g>
<g>
	<g>
		<rect x="376.163" y="455.597" width="15.673" height="15.673"/>
	</g>
</g>
<g>
	<g>
		<rect x="407.51" y="455.597" width="16.718" height="15.673"/>
	</g>
</g>
<g>
	<g>
		<rect x="439.902" y="455.597" width="15.673" height="15.673"/>
	</g>
</g>
</svg>